<?xml version="1.0" encoding="UTF-8"?>
<svg width="64px" height="64px" viewBox="0 0 64 64" version="1.1" xmlns="http://www.w3.org/2000/svg" xmlns:xlink="http://www.w3.org/1999/xlink">
    <!-- Generator: Sketch 59 (86127) - https://sketch.com -->
    <title>ico-clear</title>
    <desc>Created with Sketch.</desc>
    <g id="页面-1" stroke="none" stroke-width="1" fill="none" fill-rule="evenodd">
        <g id="桌面端-HD" transform="translate(-819.000000, -350.000000)" fill="#E0B87B">
            <g id="ico-clear" transform="translate(819.000000, 350.000000)">
                <path d="M3.98900282,-0.000274285714 L8.17424225,63.6733257 L54.9393127,63.6733257 L59.1245521,-0.000274285714 L3.98900282,-0.000274285714 Z M7.84252394,3.65778286 L55.2701296,3.65778286 L51.5662423,60.0161829 L11.5473127,60.0161829 L7.84252394,3.65778286 Z" id="Fill-1"></path>
                <polygon id="Fill-2" points="13.976338 13.8318629 17.5819718 13.8318629 17.5819718 9.83094857 13.976338 9.83094857"></polygon>
                <polygon id="Fill-3" points="21.8654648 21.8336914 25.4710986 21.8336914 25.4710986 17.8327771 21.8654648 17.8327771"></polygon>
                <polygon id="Fill-4" points="13.976338 29.8364343 17.5819718 29.8364343 17.5819718 25.83552 13.976338 25.83552"></polygon>
                <polygon id="Fill-5" points="13.976338 45.8410057 17.5819718 45.8410057 17.5819718 41.8400914 13.976338 41.8400914"></polygon>
                <polygon id="Fill-6" points="21.8654648 53.8428343 25.4710986 53.8428343 25.4710986 49.84192 21.8654648 49.84192"></polygon>
                <polygon id="Fill-7" points="21.8654648 37.8382629 25.4710986 37.8382629 25.4710986 33.8373486 21.8654648 33.8373486"></polygon>
                <polygon id="Fill-8" points="29.755493 13.8318629 33.3611268 13.8318629 33.3611268 9.83094857 29.755493 9.83094857"></polygon>
                <polygon id="Fill-9" points="37.6446197 21.8336914 41.2502535 21.8336914 41.2502535 17.8327771 37.6446197 17.8327771"></polygon>
                <polygon id="Fill-10" points="29.755493 29.8364343 33.3611268 29.8364343 33.3611268 25.83552 29.755493 25.83552"></polygon>
                <polygon id="Fill-11" points="29.755493 45.8410057 33.3611268 45.8410057 33.3611268 41.8400914 29.755493 41.8400914"></polygon>
                <polygon id="Fill-12" points="37.6446197 53.8428343 41.2502535 53.8428343 41.2502535 49.84192 37.6446197 49.84192"></polygon>
                <polygon id="Fill-13" points="37.6446197 37.8382629 41.2502535 37.8382629 41.2502535 33.8373486 37.6446197 33.8373486"></polygon>
                <polygon id="Fill-14" points="45.5337465 13.8318629 49.1393803 13.8318629 49.1393803 9.83094857 45.5337465 9.83094857"></polygon>
                <polygon id="Fill-15" points="45.5337465 29.8364343 49.1393803 29.8364343 49.1393803 25.83552 45.5337465 25.83552"></polygon>
                <polygon id="Fill-16" points="45.5337465 45.8410057 49.1393803 45.8410057 49.1393803 41.8400914 45.5337465 41.8400914"></polygon>
                <polygon id="Fill-17" points="0 3.65769143 63.1148169 3.65769143 63.1148169 -0.000365714286 0 -0.000365714286"></polygon>
            </g>
        </g>
    </g>
</svg>