<?xml version="1.0" encoding="UTF-8"?>
<svg width="64px" height="64px" viewBox="0 0 64 64" version="1.1" xmlns="http://www.w3.org/2000/svg" xmlns:xlink="http://www.w3.org/1999/xlink">
    <!-- Generator: Sketch 59 (86127) - https://sketch.com -->
    <title>ico-eraser</title>
    <desc>Created with Sketch.</desc>
    <g id="页面-1" stroke="none" stroke-width="1" fill="none" fill-rule="evenodd">
        <g id="桌面端-HD" transform="translate(-623.000000, -341.000000)" fill="#E0B87B">
            <g id="ico-eraser" transform="translate(623.000000, 341.000000)">
                <polygon id="Fill-1" points="52.8 50.8221296 18.2902857 16.799369 20.8758857 14.2501859 55.3856 48.2729465"></polygon>
                <g id="编组" transform="translate(0.000000, 0.580958)">
                    <path d="M49.8383543,63.0985915 C49.7194971,63.0985915 49.60064,63.0805634 49.4817829,63.0625352 C49.3629257,63.035493 49.2532114,63.0084507 49.1434971,62.9633803 C49.0337829,62.9183099 48.9240686,62.8552113 48.8244114,62.7921127 C48.7229257,62.7290141 48.6324114,62.6569014 48.5501257,62.5667606 C48.3754971,62.395493 48.2383543,62.2061972 48.1469257,61.9808451 C48.0564114,61.764507 48.0097829,61.5301408 48.0097829,61.2957746 C48.0097829,60.8180282 48.2017829,60.3583099 48.5501257,60.0247887 C48.6324114,59.9346479 48.7229257,59.8625352 48.8244114,59.7994366 C48.9240686,59.7273239 49.0337829,59.6732394 49.1434971,59.628169 C49.2532114,59.5830986 49.3629257,59.5470423 49.4817829,59.5290141 C49.7194971,59.4839437 49.9672686,59.4839437 50.19584,59.5290141 C50.3146971,59.5470423 50.43264,59.5830986 50.5432686,59.628169 C50.6529829,59.6732394 50.75264,59.7273239 50.8532114,59.7994366 C50.9546971,59.8625352 51.0452114,59.9346479 51.1274971,60.0247887 C51.21984,60.1059155 51.2929829,60.1960563 51.3560686,60.2952113 C51.4292114,60.3943662 51.4849829,60.4935211 51.5306971,60.6016901 C51.5754971,60.7098592 51.6120686,60.8270423 51.6303543,60.9442254 C51.6577829,61.0614085 51.6669257,61.1785915 51.6669257,61.2957746 C51.6669257,61.5301408 51.6212114,61.764507 51.5306971,61.9808451 C51.4383543,62.2061972 51.3021257,62.395493 51.1274971,62.5667606 C50.7892114,62.9092958 50.3229257,63.0985915 49.8383543,63.0985915" id="Fill-2"></path>
                    <path d="M57.8383543,63.0985915 C57.7194971,63.0985915 57.60064,63.0805634 57.4817829,63.0625352 C57.3629257,63.035493 57.2532114,63.0084507 57.1434971,62.9633803 C57.0337829,62.9183099 56.9240686,62.8552113 56.83264,62.7921127 C56.7320686,62.7290141 56.6324114,62.6569014 56.5501257,62.5667606 C56.3754971,62.395493 56.2484114,62.2061972 56.1560686,61.9808451 C56.0655543,61.764507 56.0097829,61.5301408 56.0097829,61.2957746 C56.0097829,61.1785915 56.0289829,61.0614085 56.0463543,60.9442254 C56.0737829,60.8270423 56.1103543,60.7098592 56.1560686,60.6016901 C56.2017829,60.4935211 56.2575543,60.3943662 56.3215543,60.2952113 C56.38464,60.1960563 56.4669257,60.1059155 56.5501257,60.0247887 C56.6324114,59.9346479 56.7320686,59.8625352 56.83264,59.7994366 C56.9240686,59.7273239 57.0337829,59.6732394 57.1434971,59.628169 C57.2532114,59.5830986 57.3720686,59.5470423 57.4817829,59.5290141 C57.7194971,59.4839437 57.9672686,59.4839437 58.2040686,59.5290141 C58.3146971,59.5470423 58.43264,59.5830986 58.5432686,59.628169 C58.6529829,59.6732394 58.7626971,59.7273239 58.8532114,59.7994366 C58.9546971,59.8625352 59.0543543,59.9346479 59.13664,60.0247887 C59.21984,60.1059155 59.2929829,60.1960563 59.3652114,60.2952113 C59.4292114,60.3943662 59.4849829,60.4935211 59.5306971,60.6016901 C59.5754971,60.7098592 59.6120686,60.8270423 59.6404114,60.9442254 C59.6577829,61.0614085 59.6669257,61.1785915 59.6669257,61.2957746 C59.6669257,61.5301408 59.6212114,61.764507 59.5306971,61.9808451 C59.4383543,62.2061972 59.3103543,62.395493 59.13664,62.5667606 C59.0543543,62.6569014 58.9546971,62.7290141 58.8532114,62.7921127 C58.7626971,62.8552113 58.6529829,62.9183099 58.5432686,62.9633803 C58.43264,63.0084507 58.3229257,63.035493 58.2040686,63.0625352 C58.0861257,63.0805634 57.9672686,63.0985915 57.8383543,63.0985915" id="Fill-4"></path>
                    <path d="M41.8517943,63.0967887 L24.3889371,63.0967887 L2.87945143,43.9112113 C1.02253714,42.0804507 0.000365714286,39.6457465 0.000365714286,37.0569014 C0.000365714286,34.4680563 1.02345143,32.0342535 2.88036571,30.2043944 L33.1962514,0.32 L35.8394514,0.32 L35.8394514,3.9256338 L34.7103086,3.9256338 L5.46596571,32.7535775 C4.29933714,33.9028732 3.65750857,35.4325634 3.65750857,37.0578028 C3.65750857,38.6695211 4.28836571,40.1856901 5.43488,41.3313803 L25.7978514,59.4911549 L40.3377371,59.4911549 L60.0159086,40.0928451 L60.0159086,39.6015775 L63.6730514,39.6015775 L63.6730514,41.5864789 L41.8517943,63.0967887 Z" id="Fill-6"></path>
                </g>
            </g>
        </g>
    </g>
</svg>