<?xml version="1.0" encoding="UTF-8"?>
<svg width="40px" height="68px" viewBox="0 0 40 68" version="1.1" xmlns="http://www.w3.org/2000/svg" xmlns:xlink="http://www.w3.org/1999/xlink">
    <!-- Generator: Sketch 59 (86127) - https://sketch.com -->
    <title>ico-brush</title>
    <desc>Created with Sketch.</desc>
    <defs>
        <polygon id="path-1" points="0 0.129005714 39.6028571 0.129005714 39.6028571 61.1998057 0 61.1998057"></polygon>
    </defs>
    <g id="页面-1" stroke="none" stroke-width="1" fill="none" fill-rule="evenodd">
        <g id="桌面端-HD" transform="translate(-466.000000, -341.000000)">
            <g id="ico-brush" transform="translate(466.000000, 341.000000)">
                <path d="M33.1754286,10.4452857 L8.1687619,10.4452857 C4.82019048,10.4452857 2.09638095,7.667 2.09638095,4.25145714 L2.09638095,0.000485714286 L5.90590476,0.000485714286 L5.90590476,4.25145714 C5.90590476,5.52402857 6.92114286,6.55957143 8.1687619,6.55957143 L33.1754286,6.55957143 C34.4230476,6.55957143 35.4382857,5.52402857 35.4382857,4.25145714 L35.4382857,0.000485714286 L39.2478095,0.000485714286 L39.2478095,4.25145714 C39.2478095,7.667 36.524,10.4452857 33.1754286,10.4452857" id="Fill-1" fill="#E0B87B"></path>
                <g id="编组" transform="translate(0.000000, 6.594640)">
                    <mask id="mask-2" fill="white">
                        <use xlink:href="#path-1"></use>
                    </mask>
                    <g id="Clip-4"></g>
                    <path d="M19.7974286,4.01472 C15.5707619,4.01472 11.5802857,5.97797714 8.5612381,9.54409143 C2.88504762,16.24792 2.26695238,27.1978629 7.12409524,35.0130057 C10.1879048,39.9439771 11.8412381,42.6270629 15.2602857,48.2166629 C16.8555238,50.8249486 17.1402857,53.9189486 16.2298095,56.6360343 C18.6726667,55.7704914 20.7498095,54.0840914 22.186,51.7312914 C26.2507619,45.0779771 31.3374286,36.7712914 32.4879048,34.9858057 C37.4364762,27.3066629 36.8117143,16.3683771 31.033619,9.54409143 C28.0145714,5.97797714 24.0240952,4.01472 19.7974286,4.01472 L19.7974286,4.01472 Z M7.35266667,61.1998057 L11.0574286,57.7998057 C13.126,55.9006629 13.533619,52.7357486 12.0279048,50.2741486 C8.61457143,44.6932914 6.96504762,42.0160343 3.906,37.0938057 C-1.90733333,27.7379771 -1.16257143,15.0841486 5.67838095,7.00477714 C9.43171429,2.57117714 14.446,0.129005714 19.7974286,0.129005714 C25.1488571,0.129005714 30.1631429,2.57117714 33.9164762,7.00477714 C40.7669524,15.0948343 41.5212381,28.0420343 35.6707619,37.1210057 C34.7774286,38.5072343 31.2326667,44.27072 25.4193333,53.7858629 C22.598381,58.4059771 17.7079048,61.1716343 12.3364762,61.1871771 L7.35266667,61.1998057 Z" id="Fill-3" fill="#E0B87B" mask="url(#mask-2)"></path>
                </g>
            </g>
        </g>
    </g>
</svg>